REM MD5 a528eb2018d2a482e1d994211ace806f
FILE "PlayStation Demo Disc - Shock Your System! (USA) (SCUS-94496).bin" BINARY
  TRACK 01 MODE2/2352
    INDEX 01 00:00:00
  TRACK 02 AUDIO
    INDEX 00 54:00:00
    INDEX 01 54:02:00
  TRACK 03 AUDIO
    INDEX 00 58:30:39
    INDEX 01 58:32:39
  TRACK 04 AUDIO
    INDEX 00 58:37:26
    INDEX 01 58:39:26
  TRACK 05 AUDIO
    INDEX 00 60:35:44
    INDEX 01 60:37:44
REM LEADOUT 60:43:40
